# xmcd CD database file
# Copyright (C) 1995-1998 Ti Kan
#
# Track frame offsets:
#	150
#	11342
#	30785
#	40452
#	53912
#	66887
#	80600
#	89665
#	102265
#	119355
#	132360
#	145767
#	159617
#	173712
#	186487
#	199090
#	216530
#	228905
#
# Disc length: 3218 seconds
#
# Revision: 1
# Processed by: cddbd v1.4PL0 Copyright (c) Steve Scherf et al.
# Submitted via: CDex 1.30
#
DISCID=fe0c9012
DTITLE=Various Artist - The Classic Country Collection - CD 2
DYEAR=1996
DGENRE=Country
TTITLE0=Willie Nelson - Night Life
TTITLE1=Bobby Gentry - Ode to Billy Joe
TTITLE2=Johnny Cash - I Got Stripes
TTITLE3=Dolly Parton - I Will Always Love You
TTITLE4=Don Williams - You're My Best Friend
TTITLE5=Waylon Jennings and Willie Nelson - Good-Hearted Woman
TTITLE6=Wanda Jackson - Jambalaya (On The Bayou)
TTITLE7=Glen Campbell - By The Time I Get To Phoenix
TTITLE8=Tom T. Hall - My Bojangles
TTITLE9=Waylon Jennings and Skeeter Davies - Storms Never Last
TTITLE10=Tanya Tucker - Delta Dawn
TTITLE11=Waylon Jennings - Amanda
TTITLE12=Dolly Parton - Coat of Many Colors
TTITLE13=Dave and Sugar - Queen Of The Silver Dollar
TTITLE14=Patsy Cline - Crazy
TTITLE15=Charlie Rich - My Elusive Dream
TTITLE16=Ronnie Milsap - My Heart
TTITLE17=Jim Reeves - I Can't Stop Loving You
EXTD=YEAR: 1996  ID3G:   2
EXTT0=
EXTT1=
EXTT2=
EXTT3=
EXTT4=
EXTT5=
EXTT6=
EXTT7=
EXTT8=
EXTT9=
EXTT10=
EXTT11=
EXTT12=
EXTT13=
EXTT14=
EXTT15=
EXTT16=
EXTT17=
PLAYORDER=
